<svg width="24" height="25" viewBox="0 0 24 25" fill="none" xmlns="http://www.w3.org/2000/svg">
<g id="Bell_pin_light">
<path id="Subtract" fill-rule="evenodd" clip-rule="evenodd" d="M14.3752 4.48156C13.6432 4.17099 12.8398 4 12 4C8.89876 4 6.29342 6.33189 5.95094 9.4142L5.69914 11.6804L5.69288 11.7363C5.572 12.7897 5.2291 13.8056 4.68681 14.7168L4.65795 14.765L4.07991 15.7284L4.06599 15.7516C3.81556 16.169 3.60811 16.5147 3.47327 16.801C3.33718 17.0899 3.23229 17.4025 3.28456 17.7338C3.34107 18.0919 3.5254 18.4175 3.80345 18.6502C4.06063 18.8655 4.38261 18.9364 4.70041 18.9683C5.01528 19 5.41847 19 5.90519 19H5.93227H18.0678H18.0949C18.5816 19 18.9848 19 19.2997 18.9683C19.6175 18.9364 19.9395 18.8655 20.1966 18.6502C20.4747 18.4175 20.659 18.0919 20.7155 17.7338C20.7678 17.4025 20.6629 17.0899 20.5268 16.801C20.392 16.5147 20.1846 16.169 19.9342 15.7517L19.9341 15.7516L19.9202 15.7284L19.3421 14.765L19.3133 14.7168C18.771 13.8056 18.4281 12.7897 18.3072 11.7363L18.3009 11.6804L18.2585 11.298C17.9455 11.4016 17.6155 11.4677 17.2737 11.4908L17.3071 11.7909L17.3137 11.8503C17.4507 13.0442 17.8393 14.1955 18.4539 15.2282L18.4846 15.2795L19.0627 16.2429C19.3306 16.6894 19.5113 16.9918 19.6221 17.2271C19.7341 17.4649 19.7321 17.5504 19.7277 17.5779C19.7089 17.6973 19.6475 17.8058 19.5548 17.8834C19.5334 17.9013 19.4612 17.947 19.1996 17.9734C18.9408 17.9994 18.5885 18 18.0678 18H5.93227C5.41159 18 5.05923 17.9994 4.80051 17.9734C4.53889 17.947 4.4667 17.9013 4.4453 17.8834C4.35262 17.8058 4.29118 17.6973 4.27234 17.5779C4.26799 17.5504 4.26593 17.4649 4.37796 17.2271C4.48875 16.9918 4.66952 16.6894 4.9374 16.2429L5.51544 15.2795L5.54615 15.2282C6.16074 14.1955 6.54936 13.0442 6.68636 11.8503L6.69302 11.7909L6.94482 9.52463C7.23103 6.94875 9.40831 5 12 5C12.5837 5 13.1464 5.09884 13.6711 5.28142C13.8695 4.98435 14.1066 4.71532 14.3752 4.48156ZM16.1893 5.67115C15.8745 5.81089 15.6025 6.02951 15.3984 6.30192C16.2932 7.1054 16.9044 8.22482 17.0524 9.49933C17.407 9.49021 17.7386 9.3888 18.0242 9.21822C17.8234 7.82034 17.155 6.58721 16.1893 5.67115Z" fill="#FDFDFD"/>
<path id="Ellipse 45" d="M9.10222 18.9059C9.27315 19.6501 9.64978 20.3077 10.1737 20.7767C10.6976 21.2458 11.3396 21.5 12 21.5C12.6604 21.5 13.3024 21.2458 13.8263 20.7767C14.3502 20.3077 14.7269 19.6501 14.8978 18.9059" stroke="#FDFDFD" stroke-linecap="round"/>
<circle id="Ellipse 6" cx="17" cy="7.5" r="2" fill="#FDFDFD"/>
</g>
</svg>
