<svg width="18" height="19" viewBox="0 0 18 19" fill="none" xmlns="http://www.w3.org/2000/svg">
<path d="M3.42105 11.4176L6.60221 2.40154C6.60221 2.40154 7.66271 1.34075 8.9895 2.66751C10.3163 3.99426 9.785 5.58432 9.785 5.58432M3.42105 11.4176L4.48192 12.4788M3.42105 11.4176C1.83143 13.01 1.29757 14.5976 2.62546 15.9254C3.95336 17.2533 5.54239 16.7209 7.13337 15.1299M3.42105 11.4176L7.13337 15.1299M4.48192 12.4788L9.785 5.58432M4.48192 12.4788L6.07275 14.0697M9.785 5.58432C9.785 5.58432 11.1111 4.78915 12.437 6.11497C13.7628 7.4408 12.9673 8.76661 12.9673 8.76661M7.13337 15.1299L16.1501 11.9494C16.1501 11.9494 17.2109 10.8889 15.8841 9.5621C14.5573 8.23535 12.9673 8.76661 12.9673 8.76661M7.13337 15.1299L6.07275 14.0697M6.07275 14.0697L12.9673 8.76661" stroke="#FDFDFD" stroke-width="1.5" stroke-linejoin="round"/>
</svg>
