<svg width="18" height="19" viewBox="0 0 18 19" fill="none" xmlns="http://www.w3.org/2000/svg">
<path d="M9.8252 1.99294L9.81775 1.24298L8.31782 1.25789L8.32528 2.00785L9.8252 1.99294ZM1.50806 8.82507L0.758097 8.81761L0.743189 10.3175L1.49315 10.325L1.50806 8.82507ZM16.4922 10.1749L17.2421 10.1824L17.257 8.68245L16.5071 8.67499L16.4922 10.1749ZM8.17502 17.007L8.18248 17.757L9.6824 17.7421L9.67495 16.9921L8.17502 17.007ZM10.8562 10.2954C10.5633 10.0025 10.0884 10.0025 9.79555 10.2954C9.50265 10.5883 9.50265 11.0632 9.79555 11.3561L10.8562 10.2954ZM11.3865 12.9471C11.6794 13.2399 12.1543 13.2399 12.4472 12.9471C12.7401 12.6542 12.7401 12.1793 12.4472 11.8864L11.3865 12.9471ZM6.61355 6.05276C6.32066 5.75986 5.84579 5.75986 5.55289 6.05276C5.26 6.34565 5.26 6.82052 5.55289 7.11342L6.61355 6.05276ZM7.14388 8.70441C7.43678 8.9973 7.91165 8.9973 8.20454 8.70441C8.49744 8.41151 8.49744 7.93664 8.20454 7.64375L7.14388 8.70441ZM14.2356 8.52258C14.1351 8.12073 13.7279 7.87641 13.3261 7.97687C12.9242 8.07734 12.6799 8.48454 12.7804 8.88638L14.2356 8.52258ZM13.3107 11.0077C13.4112 11.4095 13.8184 11.6539 14.2202 11.5534C14.6221 11.4529 14.8664 11.0457 14.7659 10.6439L13.3107 11.0077ZM9.61354 5.71972C10.0154 5.82018 10.4226 5.57586 10.523 5.17401C10.6235 4.77216 10.3792 4.36496 9.97734 4.2645L9.61354 5.71972ZM7.85602 3.73417C7.45417 3.63371 7.04697 3.87803 6.94651 4.27988C6.84605 4.68172 7.09037 5.08892 7.49222 5.18939L7.85602 3.73417ZM8.3866 13.2801C7.98476 13.1796 7.57756 13.424 7.47709 13.8258C7.37663 14.2277 7.62095 14.6349 8.0228 14.7353L8.3866 13.2801ZM10.1441 15.2656C10.546 15.3661 10.9532 15.1218 11.0536 14.7199C11.1541 14.3181 10.9098 13.9109 10.5079 13.8104L10.1441 15.2656ZM3.76455 10.4772C3.86501 10.8791 4.27221 11.1234 4.67406 11.0229C5.0759 10.9225 5.32023 10.5153 5.21976 10.1134L3.76455 10.4772ZM4.68943 7.99212C4.58897 7.59027 4.18177 7.34595 3.77993 7.44641C3.37808 7.54687 3.13376 7.95407 3.23422 8.35592L4.68943 7.99212ZM13.7731 14.273C11.1371 16.909 6.86319 16.909 4.22715 14.273L3.16649 15.3336C6.38832 18.5555 11.6119 18.5555 14.8338 15.3336L13.7731 14.273ZM4.22715 14.273C1.59111 11.6369 1.59111 7.36307 4.22715 4.72703L3.16649 3.66637C-0.0553343 6.88819 -0.0553343 12.1118 3.16649 15.3336L4.22715 14.273ZM4.22715 4.72703C6.86319 2.09099 11.1371 2.09099 13.7731 4.72703L14.8338 3.66637C11.6119 0.444544 6.38832 0.444544 3.16649 3.66637L4.22715 4.72703ZM13.7731 4.72703C16.4091 7.36307 16.4091 11.6369 13.7731 14.273L14.8338 15.3336C18.0556 12.1118 18.0556 6.88819 14.8338 3.66637L13.7731 4.72703ZM8.32528 2.00785C8.34268 3.75901 7.68388 5.51308 6.34858 6.84837L7.40924 7.90903C9.04103 6.27725 9.84645 4.13047 9.8252 1.99294L8.32528 2.00785ZM6.34858 6.84837C5.01328 8.18367 3.25921 8.84247 1.50806 8.82507L1.49315 10.325C3.63068 10.3462 5.77746 9.54082 7.40924 7.90903L6.34858 6.84837ZM16.5071 8.67499C14.3695 8.65375 12.2228 9.45917 10.591 11.091L11.6516 12.1516C12.9869 10.8163 14.741 10.1575 16.4922 10.1749L16.5071 8.67499ZM10.591 11.091C8.9592 12.7227 8.15378 14.8695 8.17502 17.007L9.67495 16.9921C9.65755 15.241 10.3163 13.4869 11.6516 12.1516L10.591 11.091ZM9.79555 11.3561L11.3865 12.9471L12.4472 11.8864L10.8562 10.2954L9.79555 11.3561ZM5.55289 7.11342L7.14388 8.70441L8.20454 7.64375L6.61355 6.05276L5.55289 7.11342ZM12.7804 8.88638L13.3107 11.0077L14.7659 10.6439L14.2356 8.52258L12.7804 8.88638ZM9.97734 4.2645L7.85602 3.73417L7.49222 5.18939L9.61354 5.71972L9.97734 4.2645ZM8.0228 14.7353L10.1441 15.2656L10.5079 13.8104L8.3866 13.2801L8.0228 14.7353ZM5.21976 10.1134L4.68943 7.99212L3.23422 8.35592L3.76455 10.4772L5.21976 10.1134Z" fill="#FDFDFD"/>
</svg>
