<svg width="18" height="19" viewBox="0 0 18 19" fill="none" xmlns="http://www.w3.org/2000/svg">
<path d="M7.44133 2.16218C8.44304 4.40322 9 6.88657 9 9.5C9 12.1134 8.44304 14.5968 7.44133 16.8378M7.44133 2.16218C7.94415 2.0559 8.46555 2 9 2C11.1656 2 13.1168 2.91783 14.4858 4.38571M7.44133 2.16218C5.83688 2.50131 4.42167 3.35337 3.37531 4.53872M1.52607 8.87019C1.50881 9.07784 1.5 9.28789 1.5 9.5C1.5 11.4023 2.2082 13.1391 3.37531 14.4613M1.52607 8.87019C3.8025 7.82979 6.33354 7.25 9 7.25C11.6665 7.25 14.1975 7.82979 16.4739 8.87019M1.52607 8.87019C1.66364 7.21557 2.33833 5.71347 3.37531 4.53872M3.37531 4.53872C4.95972 5.61873 6 7.43788 6 9.5C6 11.5621 4.95972 13.3813 3.37531 14.4613M3.37531 14.4613C4.42167 15.6466 5.83688 16.4987 7.44133 16.8378M7.44133 16.8378C7.94415 16.9441 8.46555 17 9 17C11.1656 17 13.1168 16.0822 14.4858 14.6143M14.4858 14.6143C12.7695 13.5585 11.625 11.6629 11.625 9.5C11.625 7.33709 12.7695 5.44148 14.4858 4.38571M14.4858 14.6143C15.7354 13.2745 16.5 11.4766 16.5 9.5C16.5 9.28789 16.4912 9.07784 16.4739 8.87019M16.4739 8.87019C16.3303 7.14283 15.6013 5.5817 14.4858 4.38571" stroke="#FDFDFD" stroke-width="1.5"/>
</svg>
