<svg width="24" height="24" viewBox="0 0 24 24" fill="none" xmlns="http://www.w3.org/2000/svg">
<g id="bowling_01">
<path id="Vector" d="M9 16C9 19.5899 11.9101 22.5 15.5 22.5C19.0899 22.5 22 19.5899 22 16C22 12.4101 19.0899 9.5 15.5 9.5C11.9101 9.5 9 12.4101 9 16ZM9 16C9 14.9227 9.26209 13.9066 9.72599 13.012C9.29901 10.9743 8.45801 9.12133 7.82245 7.91758C7.37732 7.07451 7.5221 6.00035 7.82088 5.09501C7.92718 4.77294 7.99995 4.40466 7.99995 4C7.99995 2.5 7.25028 1.50003 6 1.5C4.7497 1.49997 3.99995 2.5 3.99995 4C3.99995 4.40467 4.07274 4.77296 4.17903 5.09503C4.47782 6.00036 4.6226 7.0745 4.17749 7.91757C3.28934 9.59976 2 12.5499 2 15.5C2 20 4 22.5 4 22.5H8C8 22.5 9.04252 21.1968 9.6222 18.7787C9.22319 17.9362 9 16.9942 9 16ZM14.6961 15.307C14.5048 15.4174 14.4392 15.662 14.5497 15.8533C14.6601 16.0446 14.9047 16.1101 15.096 15.9997M14.6961 15.307C14.8873 15.1965 15.1319 15.2621 15.2424 15.4534C15.3528 15.6446 15.2873 15.8892 15.096 15.9997M14.6961 15.307L15.096 15.9997M14.7449 12.392C14.5536 12.5024 14.4881 12.747 14.5985 12.9383C14.7089 13.1296 14.9535 13.1951 15.1448 13.0847M14.7449 12.392C14.9362 12.2815 15.1808 12.3471 15.2912 12.5383C15.4017 12.7296 15.3361 12.9742 15.1448 13.0847M14.7449 12.392L15.1448 13.0847M12.1466 13.8923C11.9553 14.0028 11.8897 14.2473 12.0002 14.4386C12.1106 14.6299 12.3552 14.6955 12.5465 14.585M12.1466 13.8923C12.3378 13.7819 12.5824 13.8474 12.6929 14.0387C12.8033 14.23 12.7378 14.4746 12.5465 14.585M12.1466 13.8923L12.5465 14.585M4.49995 8H7.49995" stroke="#FDFDFD" stroke-width="1.5" stroke-linecap="round" stroke-linejoin="round"/>
</g>
</svg>
