<svg width="24" height="24" viewBox="0 0 24 24" fill="none" xmlns="http://www.w3.org/2000/svg">
<g id="boxing_glove">
<path id="Vector" d="M5.63241 13.1045C5.63241 13.1045 6.18145 15.1535 9.21254 16.9035C12.2436 18.6535 14.2927 18.1045 14.2927 18.1045M5.63241 13.1045C6.05219 2.3772 12.4492 0.296306 16.3464 2.54635C20.2436 4.79638 20.5424 7.27829 19.7925 8.5774C19.0426 9.8765 17.2436 9.99254 17.7925 12.0415M5.63241 13.1045L3.63228 16.568C3.08 17.5245 3.40781 18.7476 4.3644 19.2999L9.56054 22.2999C10.5171 22.8522 11.7403 22.5244 12.2926 21.5678L14.2927 18.1045M14.2927 18.1045C16.4086 16.4394 19.8237 15.5236 20.8237 13.7916C21.8237 12.0595 21.2747 10.0105 19.2925 9.44342" stroke="#FDFDFD" stroke-width="1.5" stroke-linecap="round" stroke-linejoin="round"/>
</g>
</svg>
