<svg width="24" height="24" viewBox="0 0 24 24" fill="none" xmlns="http://www.w3.org/2000/svg">
<g id="bicycle">
<path id="Vector" d="M18 15L16 4C16 4 19.5 4 20 6.5M5 8L6 12L16.5 7M3 8H7M9 16C9 18.2091 7.20914 20 5 20C2.79086 20 1 18.2091 1 16C1 13.7909 2.79086 12 5 12C7.20914 12 9 13.7909 9 16ZM23 15C23 17.7614 20.7614 20 18 20C15.2386 20 13 17.7614 13 15C13 12.2386 15.2386 10 18 10C20.7614 10 23 12.2386 23 15Z" stroke="#FDFDFD" stroke-width="1.5" stroke-linecap="round" stroke-linejoin="round"/>
</g>
</svg>
