<svg width="24" height="24" viewBox="0 0 24 24" fill="none" xmlns="http://www.w3.org/2000/svg">
<g id="golf">
<path id="Vector" d="M5.38874 18.5L6.38874 19.5M8.38874 18L9.38874 19M11.1217 21.484C9.50954 22.0484 7.29989 22.5461 5.38862 22C1.88886 21 0.388627 16 4.38868 15.5C6.63569 15.2191 8.88266 15.8849 10.4206 16.5225C12.0554 17.2002 12 16.9996 13 15.5C13.8217 14.2678 18.0194 5.60829 19.4902 2.55963C19.7801 1.95858 20.4797 1.68418 21.103 1.92248C21.8111 2.19319 22.1311 3.0158 21.7921 3.69386L14.4955 18.2863C13.7745 19.7283 12.6434 20.9513 11.1217 21.484ZM22 19C22 20.1046 21.1046 21 20 21C18.8954 21 18 20.1046 18 19C18 17.8954 18.8954 17 20 17C21.1046 17 22 17.8954 22 19Z" stroke="#FDFDFD" stroke-width="1.5" stroke-linecap="round" stroke-linejoin="round"/>
</g>
</svg>
