<svg width="16" height="17" viewBox="0 0 16 17" fill="none" xmlns="http://www.w3.org/2000/svg">
<path d="M12.1436 10.1384C11.3024 11.0454 9.99222 11.9482 8 12.9385C6.00778 11.9482 4.69759 11.0454 3.85642 10.1384C3.00124 9.21633 2.61858 8.27699 2.51444 7.18827C2.38868 5.87348 3.09065 4.60662 4.04158 4.168C4.4987 3.95715 5.03325 3.92471 5.61744 4.18672C6.21446 4.45447 6.89514 5.04572 7.57492 6.14331L8 6.82965L8.42508 6.14331C9.10486 5.04572 9.78554 4.45447 10.3826 4.18672C10.9667 3.92471 11.5013 3.95715 11.9584 4.168C12.9094 4.60662 13.6113 5.87348 13.4856 7.18827C13.3814 8.27699 12.9988 9.21633 12.1436 10.1384Z" fill="#FF1717" stroke="#FF1717"/>
</svg>
