<svg width="14" height="14" viewBox="0 0 14 14" fill="none" xmlns="http://www.w3.org/2000/svg">
<path d="M10.5798 8.39112C9.85506 9.17257 8.72456 9.95426 7 10.8139C5.27544 9.95426 4.14494 9.17257 3.4202 8.39112C2.68149 7.59461 2.35221 6.78564 2.26235 5.84628C2.1544 4.71774 2.75851 3.63713 3.56256 3.26625C3.94624 3.08928 4.3951 3.06109 4.88969 3.2829C5.39709 3.51047 5.98425 4.01709 6.57492 4.9708L7 5.65714L7.42508 4.9708C8.01575 4.01709 8.60291 3.51047 9.11031 3.2829C9.6049 3.06109 10.0538 3.08928 10.4374 3.26625C11.2415 3.63713 11.8456 4.71774 11.7376 5.84628C11.6478 6.78564 11.3185 7.59461 10.5798 8.39112Z" stroke="#888888"/>
</svg>
