<svg width="24" height="25" viewBox="0 0 24 25" fill="none" xmlns="http://www.w3.org/2000/svg">
<path d="M2 12.5L1.60957 12.1877L1.35969 12.5L1.60957 12.8123L2 12.5ZM11 13C11.2761 13 11.5 12.7761 11.5 12.5C11.5 12.2239 11.2761 12 11 12V13ZM5.60957 7.18765L1.60957 12.1877L2.39043 12.8123L6.39043 7.81235L5.60957 7.18765ZM1.60957 12.8123L5.60957 17.8123L6.39043 17.1877L2.39043 12.1877L1.60957 12.8123ZM2 13H11V12H2V13Z" fill="#FDFDFD"/>
<path d="M10 8.63193V7.88851C10 6.27017 10 5.461 10.474 4.9015C10.9479 4.34201 11.7461 4.20899 13.3424 3.94293L15.0136 3.6644C18.2567 3.12388 19.8782 2.85363 20.9391 3.75232C22 4.65102 22 6.29493 22 9.58276V15.4172C22 18.7051 22 20.349 20.9391 21.2477C19.8782 22.1464 18.2567 21.8761 15.0136 21.3356L13.3424 21.0571C11.7461 20.791 10.9479 20.658 10.474 20.0985C10 19.539 10 18.7298 10 17.1115V16.566" stroke="#FDFDFD"/>
</svg>
