<svg width="18" height="18" viewBox="0 0 18 18" fill="none" xmlns="http://www.w3.org/2000/svg">
<circle cx="9" cy="6" r="1.75" stroke="#777777" stroke-linecap="round"/>
<path d="M10.4342 4.9375C10.5702 4.70198 10.7729 4.51208 11.0169 4.3918C11.2608 4.27152 11.5349 4.22627 11.8045 4.26176C12.0741 4.29726 12.3271 4.41191 12.5316 4.59122C12.7361 4.77053 12.8828 5.00644 12.9531 5.26912C13.0235 5.53181 13.0144 5.80946 12.927 6.06698C12.8396 6.3245 12.6778 6.55031 12.462 6.71586C12.2463 6.88141 11.9863 6.97927 11.7149 6.99706C11.4436 7.01484 11.173 6.95176 10.9375 6.81578" stroke="#777777"/>
<path d="M7.56578 4.9375C7.42981 4.70198 7.22705 4.51208 6.98315 4.3918C6.73924 4.27152 6.46515 4.22627 6.19553 4.26176C5.9259 4.29726 5.67286 4.41191 5.4684 4.59122C5.26394 4.77053 5.11724 5.00644 5.04685 5.26912C4.97647 5.53181 4.98556 5.80946 5.07297 6.06698C5.16039 6.3245 5.3222 6.55031 5.53795 6.71586C5.75371 6.88141 6.0137 6.97927 6.28507 6.99706C6.55644 7.01484 6.82699 6.95176 7.0625 6.81578" stroke="#777777"/>
<path d="M9 9.375C11.8738 9.375 12.7455 11.5591 13.0099 12.8841C13.118 13.4257 12.6773 13.875 12.125 13.875H5.875C5.32272 13.875 4.88204 13.4257 4.99011 12.8841C5.25452 11.5591 6.1262 9.375 9 9.375Z" stroke="#777777" stroke-linecap="round"/>
<path d="M14.4002 11.2953L14.8801 11.155L14.4002 11.2953ZM9.81543 9.43943L9.44618 9.1023L8.82576 9.78183L9.73346 9.93267L9.81543 9.43943ZM12.8861 12.375L12.4058 12.514L12.5102 12.875H12.8861V12.375ZM11.6251 9.125C12.294 9.125 12.7752 9.42457 13.1427 9.86505C13.5216 10.3191 13.7674 10.9126 13.9202 11.4355L14.8801 11.155C14.7092 10.5702 14.4146 9.82848 13.9105 9.22437C13.3951 8.60666 12.6506 8.125 11.6251 8.125V9.125ZM10.1847 9.77657C10.5405 9.38681 10.9991 9.125 11.6251 9.125V8.125C10.6712 8.125 9.95738 8.54241 9.44618 9.1023L10.1847 9.77657ZM9.73346 9.93267C11.3902 10.208 12.0954 11.441 12.4058 12.514L13.3664 12.236C13.0069 10.9935 12.1035 9.31281 9.8974 8.9462L9.73346 9.93267ZM13.5201 11.875H12.8861V12.875H13.5201V11.875ZM13.9202 11.4355C13.9537 11.55 13.9268 11.6485 13.8611 11.7268C13.7912 11.8102 13.6711 11.875 13.5201 11.875V12.875C14.3834 12.875 15.1562 12.0999 14.8801 11.155L13.9202 11.4355Z" fill="#777777"/>
<path d="M8.18473 9.43943L8.2667 9.93267L9.1744 9.78183L8.55398 9.1023L8.18473 9.43943ZM3.59998 11.2953L4.07991 11.4355L3.59998 11.2953ZM5.11407 12.375V12.875H5.48992L5.59437 12.514L5.11407 12.375ZM6.37505 9.125C7.00106 9.125 7.45963 9.38681 7.81548 9.77656L8.55398 9.1023C8.04278 8.54241 7.32897 8.125 6.37505 8.125V9.125ZM4.07991 11.4355C4.23273 10.9126 4.47851 10.3191 4.85741 9.86505C5.22497 9.42457 5.70612 9.125 6.37505 9.125V8.125C5.34958 8.125 4.60506 8.60666 4.08961 9.22436C3.58552 9.82847 3.29097 10.5702 3.12005 11.155L4.07991 11.4355ZM4.48004 11.875C4.32903 11.875 4.20892 11.8102 4.13907 11.7268C4.07336 11.6485 4.04645 11.55 4.07991 11.4355L3.12005 11.155C2.84394 12.0999 3.61676 12.875 4.48004 12.875V11.875ZM5.11407 11.875H4.48004V12.875H5.11407V11.875ZM5.59437 12.514C5.90479 11.441 6.61 10.208 8.2667 9.93267L8.10276 8.9462C5.89665 9.31281 4.99325 10.9935 4.63377 12.236L5.59437 12.514Z" fill="#777777"/>
</svg>
