<svg width="18" height="18" viewBox="0 0 18 18" fill="none" xmlns="http://www.w3.org/2000/svg">
<path d="M14.5209 12.75C15.0804 13.092 15.375 13.48 15.375 13.875C15.375 14.27 15.0804 14.658 14.5209 15C13.9614 15.342 13.1566 15.6261 12.1875 15.8236C11.2184 16.021 10.119 16.125 9 16.125C7.88095 16.125 6.78162 16.021 5.8125 15.8236C4.84338 15.6261 4.03861 15.342 3.47909 15C2.91957 14.658 2.625 14.27 2.625 13.875C2.625 13.48 2.91956 13.092 3.47909 12.75" stroke="#777777" stroke-linecap="round"/>
<path d="M14.625 7.5C14.625 11.1588 10.7346 13.6598 9.42462 14.3983C9.15805 14.5485 8.84195 14.5485 8.57538 14.3983C7.26542 13.6598 3.375 11.1588 3.375 7.5C3.375 4.125 6.10051 1.875 9 1.875C12 1.875 14.625 4.125 14.625 7.5Z" stroke="#777777"/>
<circle cx="9" cy="7.5" r="2.5" stroke="#777777"/>
</svg>
