<svg width="18" height="18" viewBox="0 0 18 18" fill="none" xmlns="http://www.w3.org/2000/svg">
<g id="&#234;&#184;&#128; &#237;&#145;&#156;&#236;&#139;&#156; &#236;&#149;&#132;&#236;&#157;&#180;&#236;&#189;&#152;">
<path id="Vector 55" d="M6.375 9.375L11.625 9.375" stroke="#222222" stroke-linecap="round"/>
<path id="Vector 58" d="M6.375 11.625L9.375 11.625" stroke="#222222" stroke-linecap="round"/>
<path id="Rectangle 4152" d="M4.125 5.025C4.125 4.18492 4.125 3.76488 4.28849 3.44401C4.4323 3.16177 4.66177 2.9323 4.94401 2.78849C5.26488 2.625 5.68492 2.625 6.525 2.625H9.13089C9.49777 2.625 9.68122 2.625 9.85385 2.66645C10.0069 2.70319 10.1532 2.7638 10.2874 2.84604C10.4388 2.9388 10.5685 3.06852 10.8279 3.32794L13.1721 5.67206C13.4315 5.93148 13.5612 6.0612 13.654 6.21257C13.7362 6.34678 13.7968 6.4931 13.8336 6.64615C13.875 6.81878 13.875 7.00223 13.875 7.36911V12.975C13.875 13.8151 13.875 14.2351 13.7115 14.556C13.5677 14.8382 13.3382 15.0677 13.056 15.2115C12.7351 15.375 12.3151 15.375 11.475 15.375H6.525C5.68492 15.375 5.26488 15.375 4.94401 15.2115C4.66177 15.0677 4.4323 14.8382 4.28849 14.556C4.125 14.2351 4.125 13.8151 4.125 12.975V5.025Z" stroke="#222222"/>
<path id="Vector 317" d="M9.375 2.625V4.725C9.375 5.56508 9.375 5.98512 9.53849 6.30599C9.6823 6.58823 9.91177 6.8177 10.194 6.96151C10.5149 7.125 10.9349 7.125 11.775 7.125H13.875" stroke="#222222"/>
</g>
</svg>
