<svg width="24" height="24" viewBox="0 0 24 24" fill="none" xmlns="http://www.w3.org/2000/svg">
<g id="swimming_cap">
<path id="Vector" d="M6.42514 12C6.79442 10.9326 7 9.74771 7 8.5C7 7.05397 6.72388 5.69228 6.23682 4.50018M17.5749 12.0002C17.2056 10.9328 17 9.74789 17 8.50018C17 7.05415 17.2761 5.69246 17.7632 4.50035M3.5 17.5L1.5 17M3.5 17.5C3.5 18.8807 5.567 20 7.5 20C9.433 20 10.5 18.8807 10.5 17.5C10.5 16.1193 9.433 15 7.5 15C5.567 15 3.5 16.1193 3.5 17.5ZM22.5 17L20.5 17.5M20.5 17.5C20.5 18.8807 18.433 20 16.5 20C14.567 20 13.5 18.8807 13.5 17.5C13.5 16.1193 14.567 15 16.5 15C18.433 15 20.5 16.1193 20.5 17.5ZM10.5 16.5C10.5 16.5 11 16 12 16C13 16 13.5 16.5 13.5 16.5M2.05958 11.0027C2.5771 6.61774 6.42529 2 12 2C17.5747 2 21.4229 6.61774 21.9404 11.0027C22.0052 11.5511 21.5523 12 21 12H3C2.44772 12 1.99484 11.5511 2.05958 11.0027Z" stroke="#FDFDFD" stroke-width="1.5" stroke-linecap="round" stroke-linejoin="round"/>
</g>
</svg>
