<svg width="24" height="24" viewBox="0 0 24 24" fill="none" xmlns="http://www.w3.org/2000/svg">
<g id="table_tennis">
<path id="Vector" d="M3.40242 10.3008L14.834 16.9008M17.9999 13.6171C15.5249 17.904 10.8894 19.0381 7.20653 16.9118C3.52369 14.7856 2.18813 10.204 4.66313 5.91714C7.13813 1.63031 11.7737 0.496137 15.4565 2.62243C19.1394 4.74872 20.4749 9.33031 17.9999 13.6171ZM6.29152 16.2967L8.08492 17.3502L5.88547 22.5L3.02759 20.85L6.29152 16.2967ZM20.9999 20C20.9999 21.1046 20.1045 22 18.9999 22C17.8954 22 16.9999 21.1046 16.9999 20C16.9999 18.8954 17.8954 18 18.9999 18C20.1045 18 20.9999 18.8954 20.9999 20Z" stroke="#FDFDFD" stroke-width="1.5" stroke-linejoin="round"/>
</g>
</svg>
