<svg width="20" height="20" viewBox="0 0 20 20" fill="none" xmlns="http://www.w3.org/2000/svg">
<path d="M3.33301 11.5002C3.33301 9.61463 3.33301 8.67182 3.91879 8.08603C4.50458 7.50024 5.44739 7.50024 7.33301 7.50024H12.6663C14.552 7.50024 15.4948 7.50024 16.0806 8.08603C16.6663 8.67182 16.6663 9.61463 16.6663 11.5002V11.5002C16.6663 14.3287 16.6663 15.7429 15.7877 16.6216C14.909 17.5002 13.4948 17.5002 10.6663 17.5002H9.333C6.50458 17.5002 5.09037 17.5002 4.21169 16.6216C3.33301 15.7429 3.33301 14.3287 3.33301 11.5002V11.5002Z" stroke="#222222"/>
<path d="M13.75 7.50001L13.8146 6.98285C14.0304 5.25652 13.2536 3.55621 11.8074 2.5892V2.5892C10.0853 1.43782 7.8061 1.57973 6.24021 2.93583L5.55827 3.52641" stroke="#222222" stroke-linecap="round"/>
<circle cx="9.99967" cy="12.4999" r="1.66667" fill="#222222"/>
</svg>
