<svg width="24" height="24" viewBox="0 0 24 24" fill="none" xmlns="http://www.w3.org/2000/svg">
<g id="tree_pose">
<path id="Vector" d="M10.4999 11C10.4999 16 9.99989 22.5 9.99989 22.5H7.99989M13.4999 11V15M10.4999 15C14.4999 15 18.9999 16 18.9999 17C18.9999 18 15.2499 18.25 13.9999 18.5V20.5M10.4994 1.50006L10.5 3.00005C7.00031 5.00006 1.50038 11.0001 12.0001 11.0001C22.4998 11.0001 16.4998 5.00006 13.4745 3.00005L13.4992 1.50006M13.9999 6.99998C13.9999 8.10455 13.1045 8.99998 11.9999 8.99998C10.8953 8.99998 9.99989 8.10455 9.99989 6.99998C9.99989 5.89541 10.8953 4.99998 11.9999 4.99998C13.1045 4.99998 13.9999 5.89541 13.9999 6.99998Z" stroke="#FDFDFD" stroke-width="1.5" stroke-linecap="round" stroke-linejoin="round"/>
</g>
</svg>
