<svg width="18" height="18" viewBox="0 0 18 18" fill="none" xmlns="http://www.w3.org/2000/svg">
<path d="M15.4183 11.8821L16.1693 11.5478C16.0244 11.2224 15.6866 11.0274 15.3324 11.0646L15.4183 11.8821ZM10.7704 16.0672L9.96628 15.8963C9.89223 16.2446 10.0509 16.601 10.3593 16.7791L10.7704 16.0672ZM2.2816 5.66264L1.54568 5.29636L1.54568 5.29636L2.2816 5.66264ZM2.15302 12.0654L1.40293 12.4017L1.40293 12.4017L2.15302 12.0654ZM15.6665 12.4396L16.3967 12.8171L15.6665 12.4396ZM7.39195 4.72364L10.5192 6.9957L11.4855 5.66561L8.35832 3.39355L7.39195 4.72364ZM10.2206 6.07663L9.02606 9.7529L10.5897 10.261L11.7842 6.58468L10.2206 6.07663ZM9.80787 9.18489H5.94241V10.829H9.80787V9.18489ZM6.72421 9.7529L5.52972 6.07663L3.96611 6.58468L5.1606 10.261L6.72421 9.7529ZM5.2311 6.9957L8.35832 4.72364L7.39195 3.39355L4.26473 5.66561L5.2311 6.9957ZM15.3324 11.0646L11.4881 11.4686L11.66 13.1037L15.5042 12.6997L15.3324 11.0646ZM10.7699 12.1153L9.96628 15.8963L11.5744 16.2381L12.3781 12.4571L10.7699 12.1153ZM8.69718 4.0586V1.59248H7.0531V4.0586H8.69718ZM11.2173 7.1241L13.8441 6.41255L13.4142 4.82566L10.7874 5.53721L11.2173 7.1241ZM9.15808 10.5104L10.9242 12.7897L12.2238 11.7827L10.4577 9.50342L9.15808 10.5104ZM5.28194 9.51751L3.59299 11.7968L4.91394 12.7756L6.60288 10.4963L5.28194 9.51751ZM13.5543 3.52015L12.8617 5.32451L14.3966 5.9137L15.0892 4.10934L13.5543 3.52015ZM13.233 6.3394L15.8501 7.77872L16.6424 6.33813L14.0253 4.89881L13.233 6.3394ZM9 2.32204C12.0891 2.32204 14.6903 4.42028 15.4521 7.27068L17.0404 6.84617C16.0912 3.29464 12.8522 0.677961 9 0.677961V2.32204ZM15.4521 7.27068C15.5993 7.82134 15.678 8.40085 15.678 9H17.322C17.322 8.25624 17.2243 7.53406 17.0404 6.84617L15.4521 7.27068ZM4.96283 5.53721L2.49652 4.86919L2.06669 6.45609L4.533 7.12411L4.96283 5.53721ZM2.32204 9C2.32204 7.93096 2.57263 6.92281 3.01753 6.02891L1.54568 5.29636C0.990048 6.41273 0.677961 7.6711 0.677961 9H2.32204ZM3.01753 6.02891C4.11195 3.83001 6.38062 2.32204 9 2.32204V0.677961C5.73305 0.677961 2.9073 2.56057 1.54568 5.29636L3.01753 6.02891ZM2.06709 12.8829L4.16754 13.1037L4.33939 11.4686L2.23894 11.2479L2.06709 12.8829ZM2.9031 11.7291C2.52998 10.8969 2.32204 9.97385 2.32204 9H0.677961C0.677961 10.2102 0.936803 11.3622 1.40293 12.4017L2.9031 11.7291ZM9 15.678C7.64711 15.678 6.39047 15.2765 5.3397 14.5865L4.43723 15.9607C5.74786 16.8214 7.31672 17.322 9 17.322V15.678ZM5.3397 14.5865C4.27798 13.8892 3.42707 12.8976 2.9031 11.7291L1.40293 12.4017C2.05634 13.859 3.11588 15.093 4.43723 15.9607L5.3397 14.5865ZM3.44939 12.4571L4.08439 15.4445L5.69254 15.1027L5.05754 12.1153L3.44939 12.4571ZM16.4175 12.1053L16.1693 11.5478L14.6673 12.2165L14.9156 12.774L16.4175 12.1053ZM15.678 9C15.678 10.1054 15.41 11.1458 14.9363 12.0621L16.3967 12.8171C16.9883 11.6729 17.322 10.3742 17.322 9H15.678ZM14.9363 12.0621C14.0955 13.6884 12.606 14.9246 10.8131 15.4291L11.2584 17.0117C13.4965 16.382 15.35 14.8417 16.3967 12.8171L14.9363 12.0621ZM10.8131 15.4291C10.2375 15.5911 9.62959 15.678 9 15.678V17.322C9.7816 17.322 10.5393 17.2141 11.2584 17.0117L10.8131 15.4291ZM10.3593 16.7791L10.6248 16.9323L11.4468 15.5085L11.1814 15.3553L10.3593 16.7791Z" fill="#FDFDFD"/>
</svg>
